<?xml version="1.0" encoding="UTF-8" standalone="no" ?>
<!DOCTYPE svg PUBLIC "-//W3C//DTD SVG 1.1//EN" "http://www.w3.org/Graphics/SVG/1.1/DTD/svg11.dtd">
<svg xmlns="http://www.w3.org/2000/svg" xmlns:xlink="http://www.w3.org/1999/xlink" version="1.1" width="128" height="128" viewBox="0 0 128 128" xml:space="preserve">
<desc>Created with Fabric.js 5.2.4</desc>
<defs>
</defs>
<rect x="0" y="0" width="100%" height="100%" fill="transparent"></rect>
<g transform="matrix(1 0 0 1 64 64)" id="d34b6aeb-9fec-446b-a460-eececd66774b"  >
<rect style="stroke: none; stroke-width: 1; stroke-dasharray: none; stroke-linecap: butt; stroke-dashoffset: 0; stroke-linejoin: miter; stroke-miterlimit: 4; fill: rgb(255,255,255); fill-rule: nonzero; opacity: 1; visibility: hidden;" vector-effect="non-scaling-stroke"  x="-64" y="-64" rx="0" ry="0" width="128" height="128" />
</g>
<g transform="matrix(Infinity NaN NaN Infinity 0 0)" id="945724bf-98d6-4ad2-a323-6a438b7a2146"  >
</g>
<g transform="matrix(5.33 0 0 5.33 64 64)"  >
<path style="stroke: rgb(0,0,0); stroke-width: 1.5; stroke-dasharray: none; stroke-linecap: round; stroke-dashoffset: 0; stroke-linejoin: round; stroke-miterlimit: 4; fill: none; fill-rule: nonzero; opacity: 1;"  transform=" translate(-12, -12)" d="M 15.75 6 C 15.75 8.071067811865476 14.071067811865476 9.75 12 9.75 C 9.928932188134524 9.75 8.25 8.071067811865476 8.25 6 C 8.25 3.9289321881345245 9.928932188134524 2.25 12 2.25 C 14.071067811865476 2.25 15.75 3.9289321881345236 15.75 5.999999999999999 Z M 4.501 20.118 C 4.567858819733018 16.024159607593226 7.905613689418483 12.74047040458828 12 12.74047040458828 C 16.094386310581516 12.74047040458828 19.432141180266978 16.024159607593226 19.499 20.117999999999995 C 17.146388320515413 21.19676646272033 14.588147300242186 21.753513941728983 11.999999999999996 21.75 C 9.324 21.75 6.784 21.166 4.501 20.118 Z" stroke-linecap="round" />
</g>
</svg>