<?xml version="1.0" encoding="UTF-8" standalone="no" ?>
<!DOCTYPE svg PUBLIC "-//W3C//DTD SVG 1.1//EN" "http://www.w3.org/Graphics/SVG/1.1/DTD/svg11.dtd">
<svg xmlns="http://www.w3.org/2000/svg" xmlns:xlink="http://www.w3.org/1999/xlink" version="1.1" width="128" height="128" viewBox="0 0 128 128" xml:space="preserve">
<desc>Created with Fabric.js 5.2.4</desc>
<defs>
</defs>
<rect x="0" y="0" width="100%" height="100%" fill="transparent"></rect>
<g transform="matrix(1 0 0 1 64 64)" id="d34b6aeb-9fec-446b-a460-eececd66774b"  >
<rect style="stroke: none; stroke-width: 1; stroke-dasharray: none; stroke-linecap: butt; stroke-dashoffset: 0; stroke-linejoin: miter; stroke-miterlimit: 4; fill: rgb(255,255,255); fill-rule: nonzero; opacity: 1; visibility: hidden;" vector-effect="non-scaling-stroke"  x="-64" y="-64" rx="0" ry="0" width="128" height="128" />
</g>
<g transform="matrix(Infinity NaN NaN Infinity 0 0)" id="945724bf-98d6-4ad2-a323-6a438b7a2146"  >
</g>
<g transform="matrix(5.33 0 0 5.33 64 64)"  >
<path style="stroke: rgb(0,0,0); stroke-width: 1.5; stroke-dasharray: none; stroke-linecap: round; stroke-dashoffset: 0; stroke-linejoin: round; stroke-miterlimit: 4; fill: none; fill-rule: nonzero; opacity: 1;"  transform=" translate(-13.5, -12)" d="M 15.75 9 L 15.75 5.25 C 15.75 4.007359312880714 14.742640687119286 3 13.5 3 L 7.5 3 C 6.257359312880714 3 5.25 4.007359312880714 5.25 5.25 L 5.25 18.75 C 5.25 19.992640687119284 6.257359312880714 21 7.5 21 L 13.5 21 C 14.742640687119286 21 15.75 19.992640687119284 15.75 18.75 L 15.75 15 M 12 9 L 9 12 M 9 12 L 12 15 M 9 12 L 21.75 12" stroke-linecap="round" />
</g>
</svg>