<?xml version="1.0" encoding="UTF-8" standalone="no" ?>
<!DOCTYPE svg PUBLIC "-//W3C//DTD SVG 1.1//EN" "http://www.w3.org/Graphics/SVG/1.1/DTD/svg11.dtd">
<svg xmlns="http://www.w3.org/2000/svg" xmlns:xlink="http://www.w3.org/1999/xlink" version="1.1" width="128" height="128" viewBox="0 0 128 128" xml:space="preserve">
<desc>Created with Fabric.js 5.2.4</desc>
<defs>
</defs>
<rect x="0" y="0" width="100%" height="100%" fill="transparent"></rect>
<g transform="matrix(1 0 0 1 64 64)" id="d34b6aeb-9fec-446b-a460-eececd66774b"  >
<rect style="stroke: none; stroke-width: 1; stroke-dasharray: none; stroke-linecap: butt; stroke-dashoffset: 0; stroke-linejoin: miter; stroke-miterlimit: 4; fill: rgb(255,255,255); fill-rule: nonzero; opacity: 1; visibility: hidden;" vector-effect="non-scaling-stroke"  x="-64" y="-64" rx="0" ry="0" width="128" height="128" />
</g>
<g transform="matrix(Infinity NaN NaN Infinity 0 0)" id="945724bf-98d6-4ad2-a323-6a438b7a2146"  >
</g>
<g transform="matrix(5.33 0 0 5.33 64 64)"  >
<g style=""   >
		<g transform="matrix(1 0 0 1 0 0)"  >
<path style="stroke: rgb(0,0,0); stroke-width: 1.5; stroke-dasharray: none; stroke-linecap: round; stroke-dashoffset: 0; stroke-linejoin: round; stroke-miterlimit: 4; fill: none; fill-rule: nonzero; opacity: 1;" vector-effect="non-scaling-stroke"  transform=" translate(-12, -12)" d="M 10.343 3.94 C 10.433 3.3979999999999997 10.903 3 11.453 3 L 12.546 3 C 13.096 3 13.565999999999999 3.398 13.655999999999999 3.94 L 13.804999999999998 4.834 C 13.874999999999998 5.258 14.188999999999998 5.598 14.584999999999997 5.763999999999999 C 14.982999999999997 5.927999999999999 15.439999999999998 5.906 15.789999999999997 5.656 L 16.526999999999997 5.129 C 16.9746397666987 4.809012994204469 17.588053371048833 4.8597782580127555 17.976999999999997 5.249 L 18.749999999999996 6.023 C 19.139999999999997 6.412 19.189999999999998 7.0249999999999995 18.869999999999997 7.473 L 18.342999999999996 8.209999999999999 C 18.092999999999996 8.559999999999999 18.070999999999998 9.015999999999998 18.235999999999997 9.414 C 18.400999999999996 9.811 18.740999999999996 10.123999999999999 19.165999999999997 10.193999999999999 L 20.058999999999997 10.344 C 20.601999999999997 10.434 20.999 10.902999999999999 20.999 11.453 L 20.999 12.546999999999999 C 20.999 13.097 20.602 13.566999999999998 20.058999999999997 13.656999999999998 L 19.165 13.805999999999997 C 18.741 13.875999999999998 18.401 14.188999999999997 18.236 14.585999999999997 C 18.071 14.983999999999996 18.093 15.439999999999996 18.343 15.789999999999997 L 18.87 16.528 C 19.19 16.974999999999998 19.139 17.587999999999997 18.75 17.977999999999998 L 17.976 18.750999999999998 C 17.587198871796218 19.1396687537084 16.974441579791723 19.190414699216017 16.526999999999997 18.871 L 15.788999999999998 18.343999999999998 C 15.438999999999998 18.093999999999998 14.982999999999997 18.072 14.585999999999999 18.237 C 14.187999999999999 18.401999999999997 13.875999999999998 18.741999999999997 13.804999999999998 19.165999999999997 L 13.655999999999999 20.059999999999995 C 13.565999999999999 20.601999999999997 13.095999999999998 20.999999999999996 12.546 20.999999999999996 L 11.452 20.999999999999996 C 10.902 20.999999999999996 10.433 20.601999999999997 10.342 20.059999999999995 L 10.194 19.165999999999997 C 10.123000000000001 18.741999999999997 9.81 18.401999999999997 9.413 18.235999999999997 C 9.015 18.071999999999996 8.559000000000001 18.093999999999998 8.209 18.343999999999998 L 7.471 18.871 C 7.024 19.191 6.411 19.139999999999997 6.021 18.750999999999998 L 5.248 17.976999999999997 C 4.858778258012756 17.588053371048833 4.80801299420447 16.9746397666987 5.128 16.526999999999997 L 5.655 15.789999999999997 C 5.905 15.439999999999998 5.9270000000000005 14.983999999999998 5.763 14.585999999999997 C 5.598 14.188999999999997 5.257 13.875999999999998 4.833 13.805999999999997 L 3.939 13.655999999999997 C 3.3970000000000002 13.565999999999997 2.999 13.095999999999997 2.999 12.546999999999997 L 2.999 11.452999999999998 C 2.999 10.902999999999997 3.3970000000000002 10.432999999999998 3.939 10.342999999999998 L 4.833 10.193999999999999 C 5.257000000000001 10.123999999999999 5.598 9.811 5.763 9.414 C 5.928 9.016 5.906 8.56 5.655 8.209999999999999 L 5.1290000000000004 7.4719999999999995 C 4.80901299420447 7.024360233301294 4.859778258012756 6.410946628951165 5.2490000000000006 6.022 L 6.022 5.249 C 6.410946628951165 4.859778258012755 7.024360233301294 4.809012994204468 7.4719999999999995 5.129 L 8.209 5.656 C 8.559 5.906 9.016 5.928 9.413 5.763 C 9.81 5.598 10.123000000000001 5.258 10.193 4.834 L 10.343 3.9399999999999995 Z" stroke-linecap="round" />
</g>
		<g transform="matrix(1 0 0 1 0 0)"  >
<path style="stroke: rgb(0,0,0); stroke-width: 1.5; stroke-dasharray: none; stroke-linecap: round; stroke-dashoffset: 0; stroke-linejoin: round; stroke-miterlimit: 4; fill: none; fill-rule: nonzero; opacity: 1;" vector-effect="non-scaling-stroke"  transform=" translate(-12, -12)" d="M 15 12 C 15 13.65685424949238 13.65685424949238 15 12 15 C 10.34314575050762 15 9 13.65685424949238 9 12 C 9 10.34314575050762 10.34314575050762 9 12 9 C 13.65685424949238 9 15 10.343145750507619 15 12 Z" stroke-linecap="round" />
</g>
</g>
</g>
</svg>