<?xml version="1.0" encoding="UTF-8" standalone="no" ?>
<!DOCTYPE svg PUBLIC "-//W3C//DTD SVG 1.1//EN" "http://www.w3.org/Graphics/SVG/1.1/DTD/svg11.dtd">
<svg xmlns="http://www.w3.org/2000/svg" xmlns:xlink="http://www.w3.org/1999/xlink" version="1.1" width="128" height="128" viewBox="0 0 128 128" xml:space="preserve">
<desc>Created with Fabric.js 5.2.4</desc>
<defs>
</defs>
<g transform="matrix(1 0 0 1 64 64)" id="d34b6aeb-9fec-446b-a460-eececd66774b"  >
<rect style="stroke: none; stroke-width: 1; stroke-dasharray: none; stroke-linecap: butt; stroke-dashoffset: 0; stroke-linejoin: miter; stroke-miterlimit: 4; fill: rgb(255,255,255); fill-rule: nonzero; opacity: 1; visibility: hidden;" vector-effect="non-scaling-stroke"  x="-64" y="-64" rx="0" ry="0" width="128" height="128" />
</g>
<g transform="matrix(Infinity NaN NaN Infinity 0 0)" id="945724bf-98d6-4ad2-a323-6a438b7a2146"  >
</g>
<g transform="matrix(5.33 0 0 5.33 64 64)"  >
<path style="stroke: rgb(0,0,0); stroke-width: 1.5; stroke-dasharray: none; stroke-linecap: round; stroke-dashoffset: 0; stroke-linejoin: round; stroke-miterlimit: 4; fill: none; fill-rule: nonzero; opacity: 1;"  transform=" translate(-12, -12)" d="M 17.982 18.725 C 16.565419603581706 16.849450357721945 14.350400375030548 15.74786523486342 11.999999999999995 15.75 C 9.649599624969447 15.74786523486342 7.434580396418291 16.849450357721942 6.017999999999999 18.725 M 17.980999999999998 18.725 C 20.772556657192776 16.241962295185452 21.739772598792406 12.292449919725986 20.411466038814954 8.800478199255028 C 19.083159478837498 5.3085064787840714 15.735576125274754 3.000294969294192 11.999499999999998 3.000294969294192 C 8.263423874725243 3.000294969294192 4.915840521162501 5.3085064787840714 3.587533961185045 8.800478199255028 C 2.259227401207589 12.292449919725986 3.226443342807219 16.24196229518545 6.017999999999999 18.725 M 17.980999999999998 18.725 C 16.33502183229058 20.193180151515918 14.205626265024481 21.003140846304476 12 21 C 9.794029222532703 21.00338696757047 7.664235172516025 20.193410126415685 6.018000000000001 18.725 M 15 9.75 C 15 11.40685424949238 13.65685424949238 12.75 12 12.75 C 10.34314575050762 12.75 9 11.40685424949238 9 9.75 C 9 8.09314575050762 10.34314575050762 6.75 12 6.75 C 13.65685424949238 6.75 15 8.093145750507619 15 9.75 Z" stroke-linecap="round" />
</g>
</svg>