<?xml version="1.0" encoding="UTF-8" standalone="no" ?>
<!DOCTYPE svg PUBLIC "-//W3C//DTD SVG 1.1//EN" "http://www.w3.org/Graphics/SVG/1.1/DTD/svg11.dtd">
<svg xmlns="http://www.w3.org/2000/svg" xmlns:xlink="http://www.w3.org/1999/xlink" version="1.1" width="1080" height="1080" viewBox="0 0 1080 1080" xml:space="preserve">
<desc>Created with Fabric.js 5.2.4</desc>
<defs>
</defs>
<g transform="matrix(1 0 0 1 540 540)" id="34415ef2-6ead-47af-8003-0121d1496d53"  >
<rect style="stroke: none; stroke-width: 1; stroke-dasharray: none; stroke-linecap: butt; stroke-dashoffset: 0; stroke-linejoin: miter; stroke-miterlimit: 4; fill: rgb(255,255,255); fill-rule: nonzero; opacity: 1; visibility: hidden;" vector-effect="non-scaling-stroke"  x="-540" y="-540" rx="0" ry="0" width="1080" height="1080" />
</g>
<g transform="matrix(1 0 0 1 540 540)" id="cb770f51-c64c-4e67-ba79-31e1c9c7f305"  >
</g>
<g transform="matrix(45 0 0 45 540 540)"  >
<path style="stroke: rgb(0,0,0); stroke-width: 1.5; stroke-dasharray: none; stroke-linecap: round; stroke-dashoffset: 0; stroke-linejoin: round; stroke-miterlimit: 4; fill: none; fill-rule: nonzero; opacity: 1;"  transform=" translate(-12, -12)" d="M 9 12.75 L 11.25 15 L 15 9.75 M 21 12 C 21 13.268 20.37 14.39 19.407 15.068 C 19.617568861395668 16.271010708142732 19.22830569957939 17.50112708527261 18.364000000000004 18.363999999999997 C 17.501127085272614 19.228305699579387 16.271010708142736 19.617568861395668 15.068000000000001 19.407 C 14.366240689306546 20.406469952122222 13.221231070253065 21.00099417739999 12 21 C 10.732 21 9.61 20.37 8.932 19.407 C 7.729000918593074 19.617394627943437 6.498963637845794 19.228156495716675 5.636000000000001 18.364 C 4.771694300420615 17.501127085272614 4.382431138604334 16.271010708142736 4.593000000000001 15.068000000000003 C 3.5935300478777785 14.366240689306546 2.9990058226000116 13.221231070253067 3.0000000000000004 12 C 3 10.732 3.63 9.61 4.593 8.932 C 4.382431138604332 7.728989291857268 4.771694300420613 6.498872914727391 5.635999999999999 5.636000000000004 C 6.498963637845793 4.771843504283326 7.729000918593074 4.382605372056562 8.932 4.593000000000001 C 9.633874273811285 3.593661457440761 10.778810277225855 2.9991754556678103 11.999999999999998 3 C 13.268 3 14.39 3.63 15.068 4.593 C 16.270999081406927 4.382605372056561 17.50103636215421 4.771843504283327 18.364 5.636000000000001 C 19.228156495716675 6.498963637845793 19.61739462794344 7.729000918593073 19.407 8.931999999999999 C 20.406469952122222 9.633759310693456 21.00099417739999 10.778768929746931 21 11.999999999999996 Z" stroke-linecap="round" />
</g>
</svg>